<svg width="300" height="300" viewBox="0 0 300 300" fill="none" xmlns="http://www.w3.org/2000/svg">
<circle cx="150" cy="150" r="150" fill="#5000FF"/>
<circle cx="150" cy="150" r="150" fill="url(#paint0_linear_102_9)" fill-opacity="0.25"/>
<path d="M150 79.0625C112.285 79.0625 81.1812 107.287 76.6312 143.758C79.9727 142.407 83.5984 141.625 87.4375 141.625C96.8574 141.625 104.5 149.268 104.5 158.688V204.188C104.5 213.607 96.8574 221.25 87.4375 221.25C71.7258 221.25 59 208.524 59 192.812V187.125V170.062V153C59 102.737 99.7367 62 150 62C200.263 62 241 102.737 241 153V170.062V187.125V192.812C241 208.524 228.274 221.25 212.562 221.25C203.143 221.25 195.5 213.607 195.5 204.188V158.688C195.5 149.268 203.143 141.625 212.562 141.625C216.402 141.625 220.027 142.371 223.369 143.758C218.819 107.287 187.715 79.0625 150 79.0625Z" fill="white"/>
<defs>
<linearGradient id="paint0_linear_102_9" x1="150" y1="0" x2="150" y2="300" gradientUnits="userSpaceOnUse">
<stop stop-color="#A6A6A8"/>
<stop offset="1" stop-color="#5000FF"/>
</linearGradient>
</defs>
</svg>
